<svg width="101" height="101" viewBox="0 0 101 101" fill="none" xmlns="http://www.w3.org/2000/svg">
<path d="M79.8776 50.8221C79.8776 67.1268 66.66 80.3444 50.3553 80.3444C34.0506 80.3444 20.833 67.1268 20.833 50.8221C20.833 34.5174 34.0506 21.2998 50.3553 21.2998C66.66 21.2998 79.8776 34.5174 79.8776 50.8221Z" fill="#D9D9D9" stroke="black" stroke-width="4"/>
<path d="M40.4752 52.3099C30.4395 56.1698 27.0728 63.9968 26.644 67.4278C26.0557 69.508 28.0477 75.6875 40.4752 80.6154C44.0134 81.7948 53.3415 83.3173 62.3478 79.9721C68.6324 75.2148 74.2505 75.1496 74.5707 67.4278C74.8604 60.4435 66.7437 54.4544 62.3478 52.3099C59.2384 50.7017 50.5108 48.4501 40.4752 52.3099Z" fill="#A1887F" stroke="black" stroke-width="5" stroke-linecap="round"/>
<path d="M33.9505 25.7315C32.4065 25.2168 20.2265 32.8079 14.3295 36.6678C10.4696 39.1492 21.4059 50.8209 23.0142 50.1776C24.6225 49.5343 35.8804 26.3748 33.9505 25.7315Z" fill="#A1887F"/>
<path d="M65.1513 25.7315C64.3793 23.1581 75.4443 26.6973 87.0239 36.6678C91.7768 40.7602 80.5908 50.1785 78.0175 49.5349C75.4443 48.8913 66.1162 28.9483 65.1513 25.7315Z" fill="#A1887F"/>
<path d="M33.9505 25.7315C32.4065 25.2168 20.2265 32.8079 14.3295 36.6678C10.4696 39.1492 21.4059 50.8209 23.0142 50.1776C24.6225 49.5343 35.8804 26.3748 33.9505 25.7315Z" stroke="black" stroke-width="5" stroke-linecap="round"/>
<path d="M65.1513 25.7315C64.3793 23.1581 75.4443 26.6973 87.0239 36.6678C91.7768 40.7602 80.5908 50.1785 78.0175 49.5349C75.4443 48.8913 66.1162 28.9483 65.1513 25.7315Z" stroke="black" stroke-width="5" stroke-linecap="round"/>
<path d="M28.627 72.3722C39.0819 66.8788 42.4558 67.224 50.1779 72.3722M50.1779 72.3722C58.6295 67.2429 62.076 66.2552 72.3722 72.3722M50.1779 72.3722V61.7576M45.0314 58.541C49.1616 62.0819 51.3271 62.1887 55.0027 58.541" stroke="black" stroke-width="5" stroke-linecap="round"/>
<path d="M33.4521 39.8857C37.1123 46.5352 41.1958 46.368 44.0668 39.8857" stroke="black" stroke-width="5" stroke-linecap="round"/>
<path d="M54.6816 39.8857C58.3418 46.5352 62.4252 46.368 65.2963 39.8857" stroke="black" stroke-width="5" stroke-linecap="round"/>
<path d="M67.8524 50.8213C63.2533 57.4961 56.8145 71.6013 67.8524 74.6238C80.1165 72.2058 72.9624 57.748 67.8524 50.8213Z" fill="#4FC3F7" stroke="black" stroke-width="2" stroke-linecap="round"/>
</svg>
