<svg width="101" height="101" viewBox="0 0 101 101" fill="none" xmlns="http://www.w3.org/2000/svg">
<path d="M79.8776 50.8221C79.8776 67.1268 66.66 80.3444 50.3553 80.3444C34.0506 80.3444 20.833 67.1268 20.833 50.8221C20.833 34.5174 34.0506 21.2998 50.3553 21.2998C66.66 21.2998 79.8776 34.5174 79.8776 50.8221Z" fill="#D9D9D9" stroke="black" stroke-width="4"/>
<path d="M40.4752 52.3099C30.4395 56.1698 27.0728 63.9968 26.644 67.4278C26.0557 69.508 28.0477 75.6875 40.4752 80.6154C44.0134 81.7948 53.3415 83.3173 62.3478 79.9721C68.6324 75.2148 74.2505 75.1496 74.5707 67.4278C74.8604 60.4435 66.7437 54.4544 62.3478 52.3099C59.2384 50.7017 50.5108 48.4501 40.4752 52.3099Z" fill="#A1887F" stroke="black" stroke-width="5" stroke-linecap="round"/>
<path d="M45.8516 59.1855C46.7739 60.0464 48.4367 60.872 50.3547 60.8736M54.8579 59.1855C53.3488 60.4203 51.7812 60.8748 50.3547 60.8736M50.3547 60.8736C50.3547 60.8736 50.0331 69.1569 50.3547 70.1219C50.6764 71.0868 53.2497 73.0168 53.893 73.6601C54.5363 74.3034 54.5363 76.2333 53.893 76.8766C53.2497 77.5199 50.9981 79.7715 50.9981 79.7715" stroke="black" stroke-width="5" stroke-linecap="round"/>
<path d="M33.9505 25.7325C32.4065 25.2178 20.2265 32.8089 14.3295 36.6688C10.4696 39.1502 21.4059 50.8219 23.0142 50.1785C24.6225 49.5352 35.8804 26.3758 33.9505 25.7325Z" fill="#A1887F"/>
<path d="M65.1513 25.7325C64.3793 23.159 75.4443 26.6983 87.0239 36.6688C91.7768 40.7612 80.5908 50.1795 78.0175 49.5359C75.4443 48.8923 66.1162 28.9493 65.1513 25.7325Z" fill="#A1887F"/>
<path d="M33.9505 25.7325C32.4065 25.2178 20.2265 32.8089 14.3295 36.6688C10.4696 39.1502 21.4059 50.8219 23.0142 50.1785C24.6225 49.5352 35.8804 26.3758 33.9505 25.7325Z" stroke="black" stroke-width="5" stroke-linecap="round"/>
<path d="M65.1513 25.7325C64.3793 23.159 75.4443 26.6983 87.0239 36.6688C91.7768 40.7612 80.5908 50.1795 78.0175 49.5359C75.4443 48.8923 66.1162 28.9493 65.1513 25.7325Z" stroke="black" stroke-width="5" stroke-linecap="round"/>
<ellipse cx="36.2022" cy="43.1026" rx="5.1465" ry="5.1465" fill="black"/>
<circle cx="65.1514" cy="43.1026" r="5.1465" fill="black"/>
<path d="M81.9926 64.0579C78.7805 59.4873 72.8707 61.4207 69.8966 64.0576C66.9224 61.2743 60.3113 59.1353 57.4561 64.0574C53.8871 70.21 62.3124 79.8785 69.8966 84.2735C77.0346 79.4392 86.0077 69.7711 81.9926 64.0579Z" fill="#E53935" stroke="black" stroke-width="2" stroke-linecap="round"/>
</svg>
