<svg width="47" height="47" viewBox="0 0 47 47" fill="none" xmlns="http://www.w3.org/2000/svg">
<g clip-path="url(#clip0_146_4154)">
<path d="M8.81234 23.5002C11.5162 23.5002 13.7082 21.3082 13.7082 18.6043C13.7082 15.9004 11.5162 13.7085 8.81234 13.7085C6.10844 13.7085 3.9165 15.9004 3.9165 18.6043C3.9165 21.3082 6.10844 23.5002 8.81234 23.5002Z" fill="black"/>
<path d="M17.6248 15.6667C20.3287 15.6667 22.5207 13.4747 22.5207 10.7708C22.5207 8.06694 20.3287 5.875 17.6248 5.875C14.9209 5.875 12.729 8.06694 12.729 10.7708C12.729 13.4747 14.9209 15.6667 17.6248 15.6667Z" fill="black"/>
<path d="M29.3748 15.6667C32.0787 15.6667 34.2707 13.4747 34.2707 10.7708C34.2707 8.06694 32.0787 5.875 29.3748 5.875C26.6709 5.875 24.479 8.06694 24.479 10.7708C24.479 13.4747 26.6709 15.6667 29.3748 15.6667Z" fill="black"/>
<path d="M38.1873 23.5002C40.8912 23.5002 43.0832 21.3082 43.0832 18.6043C43.0832 15.9004 40.8912 13.7085 38.1873 13.7085C35.4834 13.7085 33.2915 15.9004 33.2915 18.6043C33.2915 21.3082 35.4834 23.5002 38.1873 23.5002Z" fill="black"/>
<path d="M33.9577 29.1008C32.2539 27.1033 30.8243 25.3996 29.101 23.4021C28.2002 22.3446 27.0448 21.2871 25.6739 20.8171C25.4585 20.7388 25.2431 20.68 25.0277 20.6408C24.5381 20.5625 24.0093 20.5625 23.5002 20.5625C22.991 20.5625 22.4623 20.5625 21.9531 20.6604C21.7377 20.6996 21.5223 20.7583 21.3068 20.8367C19.936 21.3067 18.8002 22.3642 17.8798 23.4217C16.176 25.4192 14.7464 27.1229 13.0231 29.1204C10.4577 31.6858 7.30476 34.5254 7.89226 38.5008C8.46018 40.4983 9.88976 42.4762 12.4552 43.0442C13.8848 43.3379 18.4477 42.1825 23.3043 42.1825H23.6568C28.5135 42.1825 33.0764 43.3183 34.506 43.0442C37.0714 42.4762 38.501 40.4788 39.0689 38.5008C39.676 34.5058 36.5231 31.6662 33.9577 29.1008Z" fill="black"/>
</g>
<defs>
<clipPath id="clip0_146_4154">
<rect width="47" height="47" fill="white"/>
</clipPath>
</defs>
</svg>
