<svg width="82" height="82" viewBox="0 0 82 82" fill="none" xmlns="http://www.w3.org/2000/svg">
<path d="M76.1429 46.8571H46.8571V76.1429C46.8571 79.3643 44.2214 82 41 82C37.7786 82 35.1429 79.3643 35.1429 76.1429V46.8571H5.85714C2.63571 46.8571 0 44.2214 0 41C0 37.7786 2.63571 35.1429 5.85714 35.1429H35.1429V5.85714C35.1429 2.63571 37.7786 0 41 0C44.2214 0 46.8571 2.63571 46.8571 5.85714V35.1429H76.1429C79.3643 35.1429 82 37.7786 82 41C82 44.2214 79.3643 46.8571 76.1429 46.8571Z" fill="black" fill-opacity="0.4"/>
</svg>
